<svg width="512" height="512" viewBox="0 0 512 512" fill="none" xmlns="http://www.w3.org/2000/svg">
  <defs>
    <radialGradient id="bg" cx="0" cy="0" r="1" gradientUnits="userSpaceOnUse" gradientTransform="translate(256 180) rotate(90) scale(300)">
      <stop stop-color="#4A6BC7"/>
      <stop offset="1" stop-color="#1B2D63"/>
    </radialGradient>
    <linearGradient id="skin" x1="256" y1="180" x2="256" y2="360" gradientUnits="userSpaceOnUse">
      <stop stop-color="#F6CFB2"/>
      <stop offset="1" stop-color="#E6B38F"/>
    </linearGradient>
    <linearGradient id="hair" x1="256" y1="98" x2="256" y2="260" gradientUnits="userSpaceOnUse">
      <stop stop-color="#2A1B16"/>
      <stop offset="1" stop-color="#120B0A"/>
    </linearGradient>
  </defs>
  <circle cx="256" cy="256" r="250" fill="url(#bg)"/>
  <ellipse cx="256" cy="410" rx="156" ry="124" fill="#0D1736"/>
  <path d="M119 236C119 153 180 98 256 98C332 98 393 153 393 236V250H119V236Z" fill="url(#hair)"/>
  <ellipse cx="256" cy="248" rx="112" ry="126" fill="url(#skin)"/>
  <path d="M178 231C184 189 215 160 256 160C297 160 328 189 334 231" stroke="#D49E79" stroke-width="10" stroke-linecap="round"/>
  <ellipse cx="214" cy="246" rx="12" ry="8" fill="#2C201B"/>
  <ellipse cx="298" cy="246" rx="12" ry="8" fill="#2C201B"/>
  <path d="M237 285C248 296 264 296 275 285" stroke="#A45D4D" stroke-width="7" stroke-linecap="round"/>
  <path d="M204 200C212 188 227 180 245 180" stroke="#1D120E" stroke-width="8" stroke-linecap="round"/>
  <path d="M307 200C299 188 284 180 266 180" stroke="#1D120E" stroke-width="8" stroke-linecap="round"/>
  <path d="M144 433C156 364 200 324 256 324C312 324 356 364 368 433" fill="#17244F"/>
  <circle cx="256" cy="256" r="249" stroke="#90A7F0" stroke-opacity="0.35" stroke-width="2"/>
</svg>
